<svg xmlns="http://www.w3.org/2000/svg" width="44.946" height="41.03" viewBox="0 0 44.946 41.03"><defs><style>.a{fill:#4684b9;}.b{fill:#468db9;opacity:0.247;}.c{fill:#a0cc4d;}</style></defs><g transform="translate(-1138.995 -164.995)"><path class="a" d="M20.512,41.025a20.673,20.673,0,0,1-4.138-.418A20.538,20.538,0,0,1,.412,24.65a20.712,20.712,0,0,1,0-8.268A20.546,20.546,0,0,1,16.375.412,20.707,20.707,0,0,1,24.823.45,20.413,20.413,0,0,1,32.415,3.8a20.668,20.668,0,0,1,3.09,2.71,22.859,22.859,0,0,0-14.016.172,20.4,20.4,0,0,0-3.169,1.4,18.54,18.54,0,0,0-2.764,1.847,16.474,16.474,0,0,0-2.281,2.239,14.516,14.516,0,0,0-1.722,2.569,13.053,13.053,0,0,0-1.088,2.839,12.434,12.434,0,0,0,0,6.1,13.053,13.053,0,0,0,1.088,2.839,14.516,14.516,0,0,0,1.722,2.569,16.474,16.474,0,0,0,2.281,2.239A18.541,18.541,0,0,0,18.32,33.17a20.4,20.4,0,0,0,3.173,1.4,22.383,22.383,0,0,0,7.271,1.189,22.572,22.572,0,0,0,6.437-.922,20.446,20.446,0,0,1-14.689,6.193Z" transform="translate(1139 165)"/><path class="b" d="M12.952,0a13.338,13.338,0,0,0-2.61.257A13.01,13.01,0,0,0,3.794,3.708,12.819,12.819,0,0,0,2.212,5.582a12.574,12.574,0,0,0-1.194,2.15,12.418,12.418,0,0,0,0,9.856,12.574,12.574,0,0,0,1.194,2.15,12.819,12.819,0,0,0,1.582,1.874,13.026,13.026,0,0,0,6.548,3.451,13.371,13.371,0,0,0,5.334-.023,13.035,13.035,0,0,0,6.745-3.74,14.512,14.512,0,0,1-4.259.627,14.43,14.43,0,0,1-4.591-.734,13.035,13.035,0,0,1-2-.861,11.73,11.73,0,0,1-1.746-1.14,10.294,10.294,0,0,1-1.44-1.382A8.948,8.948,0,0,1,7.3,16.224a7.946,7.946,0,0,1-.687-1.752,7.507,7.507,0,0,1,0-3.763A7.946,7.946,0,0,1,7.3,8.957,8.948,8.948,0,0,1,8.382,7.37a10.3,10.3,0,0,1,1.44-1.382,11.73,11.73,0,0,1,1.746-1.14,13.034,13.034,0,0,1,2-.861,14.762,14.762,0,0,1,8.655-.164A13.022,13.022,0,0,0,15.6.266,13.336,13.336,0,0,0,12.952,0Z" transform="translate(1178.435 198.172) rotate(180)"/><rect class="c" width="28" height="9" rx="4.5" transform="translate(1155.941 181.012)"/></g></svg>